<svg width="1024" height="1024" viewBox="0 0 1024 1024" fill="none" xmlns="http://www.w3.org/2000/svg">
<g filter="url(#filter0_d_304_553)">
<g clip-path="url(#clip0_304_553)">
<rect x="100" y="100" width="824" height="824" rx="186.688" fill="url(#paint0_linear_304_553)"/>
<rect x="522.813" y="-383.652" width="312.336" height="1407.62" transform="rotate(45 522.813 -383.652)" fill="#7948AA"/>
<rect x="743.668" y="-162.797" width="312.336" height="1407.62" transform="rotate(45 743.668 -162.797)" fill="#693382"/>
<rect x="964.523" y="58.0574" width="312.336" height="1407.62" transform="rotate(45 964.523 58.0574)" fill="#B242B8"/>
<rect x="1185.38" y="278.912" width="312.336" height="1407.62" transform="rotate(45 1185.38 278.912)" fill="#FD427C"/>
<g clip-path="url(#clip1_304_553)">
<rect width="824" height="824" transform="translate(100 100)" fill="url(#paint1_linear_304_553)"/>
<g filter="url(#filter1_f_304_553)">
<rect x="441.686" y="-17.8503" width="384.641" height="790.728" transform="rotate(-38.9581 441.686 -17.8503)" fill="white" fill-opacity="0.1"/>
</g>
</g>
<g filter="url(#filter2_d_304_553)">
<path d="M519.561 352.768V743.229H418.656V258.523L519.561 352.768Z" fill="url(#paint2_linear_304_553)"/>
<path d="M635.402 749.383C619.769 749.383 606.346 743.86 595.135 732.816C584.081 721.613 578.554 708.202 578.554 692.581C578.554 677.119 584.081 663.865 595.135 652.82C606.346 641.776 619.769 636.253 635.402 636.253C650.562 636.253 663.826 641.776 675.196 652.82C686.565 663.865 692.25 677.119 692.25 692.581C692.25 702.995 689.566 712.541 684.197 721.219C678.985 729.739 672.116 736.603 663.589 741.809C655.062 746.858 645.666 749.383 635.402 749.383Z" fill="url(#paint3_linear_304_553)"/>
</g>
</g>
</g>
<defs>
<filter id="filter0_d_304_553" x="80.6875" y="93.5625" width="862.625" height="862.625" filterUnits="userSpaceOnUse" color-interpolation-filters="sRGB">
<feFlood flood-opacity="0" result="BackgroundImageFix"/>
<feColorMatrix in="SourceAlpha" type="matrix" values="0 0 0 0 0 0 0 0 0 0 0 0 0 0 0 0 0 0 127 0" result="hardAlpha"/>
<feOffset dy="12.875"/>
<feGaussianBlur stdDeviation="9.65625"/>
<feComposite in2="hardAlpha" operator="out"/>
<feColorMatrix type="matrix" values="0 0 0 0 0 0 0 0 0 0 0 0 0 0 0 0 0 0 0.2 0"/>
<feBlend mode="normal" in2="BackgroundImageFix" result="effect1_dropShadow_304_553"/>
<feBlend mode="normal" in="SourceGraphic" in2="effect1_dropShadow_304_553" result="shape"/>
</filter>
<filter id="filter1_f_304_553" x="235.686" y="-465.694" width="1208.27" height="1268.72" filterUnits="userSpaceOnUse" color-interpolation-filters="sRGB">
<feFlood flood-opacity="0" result="BackgroundImageFix"/>
<feBlend mode="normal" in="SourceGraphic" in2="BackgroundImageFix" result="shape"/>
<feGaussianBlur stdDeviation="103" result="effect1_foregroundBlur_304_553"/>
</filter>
<filter id="filter2_d_304_553" x="400.953" y="240.82" width="318.656" height="535.922" filterUnits="userSpaceOnUse" color-interpolation-filters="sRGB">
<feFlood flood-opacity="0" result="BackgroundImageFix"/>
<feColorMatrix in="SourceAlpha" type="matrix" values="0 0 0 0 0 0 0 0 0 0 0 0 0 0 0 0 0 0 127 0" result="hardAlpha"/>
<feOffset dx="4.82812" dy="4.82812"/>
<feGaussianBlur stdDeviation="11.2656"/>
<feComposite in2="hardAlpha" operator="out"/>
<feColorMatrix type="matrix" values="0 0 0 0 0 0 0 0 0 0 0 0 0 0 0 0 0 0 0.4 0"/>
<feBlend mode="normal" in2="BackgroundImageFix" result="effect1_dropShadow_304_553"/>
<feBlend mode="normal" in="SourceGraphic" in2="effect1_dropShadow_304_553" result="shape"/>
</filter>
<linearGradient id="paint0_linear_304_553" x1="207.367" y1="100" x2="815.71" y2="924" gradientUnits="userSpaceOnUse">
<stop offset="0.17" stop-color="#A64DFF"/>
<stop offset="1" stop-color="#7600EB"/>
</linearGradient>
<linearGradient id="paint1_linear_304_553" x1="824" y1="2.45571e-05" x2="-7.36713e-05" y2="824" gradientUnits="userSpaceOnUse">
<stop offset="0.48" stop-opacity="0"/>
<stop offset="1" stop-opacity="0.5"/>
</linearGradient>
<linearGradient id="paint2_linear_304_553" x1="400.44" y1="258.523" x2="563.653" y2="804.074" gradientUnits="userSpaceOnUse">
<stop offset="0.8" stop-color="#F7F2FD"/>
<stop offset="1" stop-color="#EBD8FE"/>
</linearGradient>
<linearGradient id="paint3_linear_304_553" x1="400.44" y1="258.523" x2="563.653" y2="804.074" gradientUnits="userSpaceOnUse">
<stop offset="0.8" stop-color="#F7F2FD"/>
<stop offset="1" stop-color="#EBD8FE"/>
</linearGradient>
<clipPath id="clip0_304_553">
<rect x="100" y="100" width="824" height="824" rx="186.688" fill="white"/>
</clipPath>
<clipPath id="clip1_304_553">
<rect width="824" height="824" fill="white" transform="translate(100 100)"/>
</clipPath>
</defs>
</svg>
