<svg xmlns="http://www.w3.org/2000/svg" width="1024" height="1024" fill="none">
  <g clip-path="url(#a)">
    <rect width="1024" height="1024" fill="url(#b)" rx="232" />
    <path fill="#7948AA" d="m525.438-601.043 274.46 274.46-1236.92 1236.921-274.46-274.46z" />
    <path fill="#693382" d="m799.898-326.583 274.46 274.46-1236.92 1236.921-274.46-274.46z" />
    <path fill="#B242B8" d="m1074.36-52.123 274.46 274.46L111.9 1459.259l-274.46-274.46z" />
    <path fill="#FD427C" d="m1348.82 222.338 274.46 274.46L386.36 1733.72 111.9 1459.26z" />
    <g filter="url(#c)">
      <path fill="url(#d)" d="M521.397 314.12v485.233H396V197l125.397 117.12Z" />
      <path fill="url(#e)"
        d="M665.354 807c-19.428 0-36.108-6.863-50.041-20.588-13.737-13.922-20.605-30.588-20.605-50 0-19.216 6.868-35.686 20.605-49.412 13.933-13.725 30.613-20.588 50.041-20.588 18.839 0 35.323 6.863 49.452 20.588C728.935 700.726 736 717.196 736 736.412c0 12.941-3.336 24.804-10.008 35.588-6.476 10.588-15.012 19.118-25.609 25.588-10.597 6.275-22.273 9.412-35.029 9.412Z" />
    </g>
  </g>
  <defs>
    <linearGradient id="b" x1="133.426" x2="889.426" y1="0" y2="1024" gradientUnits="userSpaceOnUse">
      <stop offset=".17" stop-color="#A64DFF" />
      <stop offset="1" stop-color="#7600EB" />
    </linearGradient>
    <linearGradient id="d" x1="373.363" x2="576.19" y1="197" y2="874.965" gradientUnits="userSpaceOnUse">
      <stop offset=".8" stop-color="#F7F2FD" />
      <stop offset="1" stop-color="#EBD8FE" />
    </linearGradient>
    <linearGradient id="e" x1="373.363" x2="576.19" y1="197" y2="874.965" gradientUnits="userSpaceOnUse">
      <stop offset=".8" stop-color="#F7F2FD" />
      <stop offset="1" stop-color="#EBD8FE" />
    </linearGradient>
    <clipPath id="a">
      <rect width="1024" height="1024" fill="#fff" rx="232" />
    </clipPath>
    <filter id="c" width="396" height="666" x="374" y="175" color-interpolation-filters="sRGB"
      filterUnits="userSpaceOnUse">
      <feFlood flood-opacity="0" result="BackgroundImageFix" />
      <feColorMatrix in="SourceAlpha" result="hardAlpha" values="0 0 0 0 0 0 0 0 0 0 0 0 0 0 0 0 0 0 127 0" />
      <feOffset dx="6" dy="6" />
      <feGaussianBlur stdDeviation="14" />
      <feComposite in2="hardAlpha" operator="out" />
      <feColorMatrix values="0 0 0 0 0 0 0 0 0 0 0 0 0 0 0 0 0 0 0.4 0" />
      <feBlend in2="BackgroundImageFix" result="effect1_dropShadow_304_554" />
      <feBlend in="SourceGraphic" in2="effect1_dropShadow_304_554" result="shape" />
    </filter>
  </defs>
</svg>